<svg width="24" height="24" viewBox="0 0 24 24" fill="none" xmlns="http://www.w3.org/2000/svg">
<path d="M22.6975 12C23.4169 12 24.0073 12.5848 23.9294 13.3C23.7209 15.2136 23.0541 17.0557 21.9776 18.6668C20.6591 20.6402 18.7849 22.1783 16.5922 23.0866C14.3995 23.9948 11.9867 24.2324 9.65892 23.7694C7.33114 23.3064 5.19295 22.1635 3.51472 20.4853C1.83649 18.8071 0.693599 16.6689 0.230577 14.3411C-0.232446 12.0133 0.00519403 9.60051 0.913446 7.4078C1.8217 5.21509 3.35977 3.34094 5.33316 2.02236C6.94426 0.94586 8.78644 0.279132 10.7 0.0706105C11.4152 -0.00731314 12 0.58314 12 1.30248V1.30248C12 2.02182 11.4141 2.59568 10.7017 2.6951C9.30423 2.89009 7.96282 3.39823 6.78039 4.18831C5.23539 5.22065 4.0312 6.68795 3.32011 8.40467C2.60902 10.1214 2.42297 12.0104 2.78548 13.8329C3.14799 15.6553 4.04278 17.3294 5.3567 18.6433C6.67062 19.9572 8.34466 20.852 10.1671 21.2145C11.9896 21.577 13.8786 21.391 15.5953 20.6799C17.312 19.9688 18.7794 18.7646 19.8117 17.2196C20.6018 16.0372 21.1099 14.6958 21.3049 13.2983C21.4043 12.5859 21.9782 12 22.6975 12V12Z" fill="#262626"/>
</svg>
